<?xml version="1.0" encoding="UTF-8"?>
<svg id="Layer_1" xmlns="http://www.w3.org/2000/svg" viewBox="0 0 847.2 477.67">
  <defs>
    <style>
      .cls-1 {
        fill: #fff;
      }
    </style>
  </defs>
  <path class="cls-1" d="M779.86,248.34c0-2.25-.07-4.5.01-6.74.14-3.87-.62-7.57-2.05-11.14-2.14-5.37-3.74-11.04-6.53-16.05-4.85-8.7-11.61-15.89-19.76-21.75-5.91-4.24-12.35-7.46-19.14-9.85-3.38-1.19-7.13-1.6-10.75-1.79-5.65-.29-11.36-.51-16.97.04-5.54.55-11.03,1.59-16.3,3.98-3.82,1.73-7.41,4.45-11.98,4.37-4.12-.07-10.64-4.4-11.6-9.41-1.14-5.91.93-11.1,6.31-13.95,3.48-1.84,7.13-3.46,10.85-4.75,5.21-1.82,10.47-4.06,15.87-4.65,8-.89,16.12-2.71,24.24-.55.16.04.33.08.49.07,6.65-.5,12.65,2.42,18.85,3.94,5.09,1.25,9.8,4.17,14.56,6.6,3,1.53,5.76,3.54,8.65,5.31,8.38,5.16,15.25,11.88,20.9,19.9,2.24,3.18,4.81,6.18,6.64,9.57,2.46,4.55,4.57,9.32,6.42,14.15,1.68,4.37,2.94,8.92,4.14,13.45.82,3.1,1.59,6.3,1.71,9.48.26,6.65.73,13.39-.1,19.94-.96,7.54-1.8,15.24-5.44,22.26-2.08,4.01-3.23,8.5-5.33,12.49-1.91,3.63-4.42,6.97-6.88,10.29-2.21,2.98-4.51,5.95-7.11,8.58-3.83,3.88-7.66,7.88-12.04,11.07-4.92,3.58-10.26,6.74-15.78,9.29-5.36,2.48-11.22,3.87-16.81,5.9-8.26,2.99-16.85,3.61-25.45,3.14-5.72-.31-11.51-.61-17.02-2.9-4-1.67-8.38-2.4-12.49-3.84-11.04-3.88-20.5-10.3-29.09-18.17-6.64-6.08-12.24-13.02-16.7-20.76-3-5.2-5.31-10.82-7.58-16.4-1.29-3.16-1.93-6.59-2.73-9.93-.8-3.37-1.45-6.77-2.14-10.16-.16-.81-.3-1.64-.3-2.46-.03-5.57-.26-11.16.07-16.72.22-3.67,1.26-7.3,1.97-10.94.41-2.1.59-4.3,1.35-6.28,2.27-5.91,4.63-11.81,7.26-17.57,1.28-2.81,2.93-5.59,4.98-7.87,5.49-6.11,14.64-4.4,18.98,3.09,3.29,5.67,1.12,10.03-1.35,14.3-2.65,4.59-4.45,9.38-6.04,14.34-2.59,8.08-2.96,16.43-2.44,24.76.55,8.85,2.78,17.4,6.83,25.36,5.79,11.37,14.06,20.56,24.95,27.25,6.84,4.2,14,7.94,22.21,8.5,7.6.52,15.28,1.18,22.83.63,5.3-.39,10.55-1.99,15.68-4.23,11.41-5,20.79-12.35,28.17-22.15,4.31-5.72,8.13-11.88,9.61-19.15.46-2.25,1.86-4.32,2.2-6.56.77-5.05,1.14-10.17,1.68-15.25-.17-.02-.34-.03-.51-.05Z"/>
  <path class="cls-1" d="M260.52,248.53c0-25.13.1-50.25-.09-75.38-.04-5.19,2.21-8.49,6.38-10.83,1.24-.69,2.82-1.09,4.25-1.1,27.98-.06,55.95-.1,83.93.07,3.1.02,6.18,1.4,9.28,2.09,1.77.4,3.68.4,5.33,1.07,7.21,2.89,13.68,6.96,19.25,12.45,4.27,4.22,7.98,8.84,10.73,14.16,1.54,2.98,2.77,6.14,3.95,9.3,2.11,5.64,2.79,11.65,2.52,17.51-.35,7.53-1.61,14.9-4.88,22.04-4.19,9.14-10.39,16.43-18.04,22.47-3.8,3-8.74,4.54-13.03,6.96-6.38,3.59-13.29,3.62-20.29,3.58-13.07-.07-26.14.02-39.22-.05-7.96-.04-13.24-7.98-10.4-15.49,2.21-5.84,7-9.18,13.26-9.19,12.49-.02,24.98-.11,37.47.03,10.86.12,18.77-4.99,24.91-13.45,4.18-5.76,5.97-12.36,5.55-19.33-.22-3.62-1.39-7.31-2.74-10.72-2.96-7.45-8.22-13-15.62-16.13-3.2-1.36-6.77-2.55-10.18-2.59-21.65-.24-43.3-.14-64.94-.14-3.6,0-3.61.01-3.61,3.61,0,44.43-.02,88.85.02,133.28,0,4.52-1.27,8.2-5.15,10.94-4.17,2.95-8.43,2.74-12.71.75-3.95-1.84-5.93-5.11-5.93-9.56.02-25.46,0-50.92,0-76.38Z"/>
  <path class="cls-1" d="M524.2,341.66c-6.57.45-13.52-.12-20.24-2.14-5.45-1.64-10.74-3.81-16.13-5.68-6.57-2.28-12.35-6.05-17.74-10.22-5.08-3.93-9.66-8.57-14.18-13.17-2.57-2.62-4.84-5.63-6.79-8.75-2.93-4.68-5.74-9.48-8.06-14.47-2.25-4.83-3.96-9.94-5.62-15.01-.84-2.57-1.31-5.32-1.54-8.02-.56-6.59-1.53-13.24-1.13-19.79.43-7.13,1.55-14.37,3.61-21.19,1.68-5.58,3.1-11.44,6.67-16.42,2.33-3.26,3.67-7.23,6.03-10.47,5.53-7.59,11.39-14.9,19.11-20.55,5.97-4.37,12.07-8.41,18.82-11.45,3.15-1.42,6.27-2.98,9.55-4.04,3.44-1.11,7.1-1.56,10.59-2.52,7.91-2.19,15.98-1.62,24-1.43,3.76.09,7.51.97,11.23,1.64,2.27.41,4.53.96,6.72,1.69,3.33,1.11,6.64,2.33,9.87,3.69,3.87,1.62,7.93,3.02,11.42,5.27,5.09,3.29,11.22,5.54,13.35,12.29,1.46,4.64-1.08,11.26-5.24,13.83-6.04,3.73-11.1,1.69-15.98-2.05-5.48-4.19-11.74-6.9-18.15-9.02-8.41-2.79-17.27-3.35-26.06-2.55-6.9.63-13.67,2.09-20.08,5.09-6.42,3.01-12.45,6.49-17.51,11.5-3.03,3.01-6.41,5.79-8.9,9.2-3.24,4.42-5.82,9.34-8.57,14.11-3.28,5.68-3.68,12.3-5.66,18.41-.86,2.65-.17,5.78-.36,8.68-.45,6.98,1.35,13.53,2.99,20.25,1.32,5.36,3.74,10.07,6.11,14.82,3.01,6.03,7.65,10.95,12.52,15.63,7.38,7.08,16.06,11.94,25.58,15.39,2.32.84,4.81,1.41,7.27,1.63,5.93.54,11.89,1.07,17.84,1.07,3.33,0,6.66-1.09,9.99-1.66,5.07-.86,12.71,3.25,13.17,10.04.15,2.28.08,4.69-.49,6.89-1.4,5.42-6.03,7.16-10.75,8.39-2.7.7-5.55.89-8.35,1.07-2.82.17-5.66.04-8.93.04Z"/>
  <path class="cls-1" d="M590.57,291.26c0,10.48-.12,20.96.06,31.43.08,4.79-1.51,8.49-5.19,11.51-3.19,2.62-8.98,3-12.57.88-4.94-2.92-6.95-7.16-6.92-12.8.11-15.96.04-31.93.03-47.9,0-3.47-.2-3.66-3.68-3.67-8.74-.01-17.48.15-26.21-.1-2.72-.08-5.73-.68-8.04-2.03-6.69-3.92-8.36-11.62-3.09-17.92,2.51-3.01,5.53-4.56,9.49-4.54,14.4.06,28.8.13,43.19-.03,6.24-.07,13.14,4.73,12.98,12.74-.22,10.81-.06,21.62-.05,32.43Z"/>
  <path class="cls-1" d="M165.76,231.97c-7,.13-10.31-4.08-12.44-8.88-1.83-4.15-.52-8.4,3.07-11.49,4.76-4.11,9.64-8.09,14.45-12.15,2.79-2.35,5.52-4.78,8.33-7.11,4.5-3.74,9.06-7.4,13.56-11.14,4.13-3.43,8.16-7,12.36-10.34,3.87-3.08,7.62-6.48,11.94-8.77,5.8-3.08,12.64.81,15.2,6.78,1.72,4.01.65,7.21-.5,10.72-.17.53-.52,1.08-.94,1.44-6.03,5.19-12.07,10.38-18.15,15.52-3.53,2.99-7.12,5.9-10.68,8.85-6.2,5.13-12.4,10.25-18.6,15.39-2.93,2.43-5.73,5.05-8.81,7.28-2.81,2.03-5.45,4.81-8.78,3.91Z"/>
  <path class="cls-1" d="M132.91,219.85c.5,5.77-2.53,9.29-7.34,11.3-3.77,1.58-7.68,1.35-11.1-1.24-2.83-2.15-5.59-4.4-8.34-6.66-4.34-3.58-8.64-7.21-12.95-10.81-4.63-3.86-9.25-7.74-13.89-11.59-6.05-5.02-12.12-10.02-18.19-15.02-4.41-3.64-8.46-7.32-7.79-13.96.86-8.55,11.13-13.88,18.08-8.85,5.93,4.29,11.45,9.15,17.14,13.78,7.55,6.13,15.12,12.25,22.62,18.44,4.21,3.48,8.3,7.12,12.46,10.66,1.63,1.38,3.28,2.75,4.98,4.04,3.35,2.54,4.73,5.9,4.31,9.91Z"/>
  <path class="cls-1" d="M154.53,291.23c0,11.05-.1,22.11.05,33.16.07,4.77-2.22,8.05-6.08,10.05-4.09,2.12-8.3,2.09-12.51-.56-3.3-2.08-4.91-4.83-5.2-8.52-.37-4.77-.9-9.55-.93-14.32-.12-15.88-.13-31.75.03-47.63.03-3.18.69-6.44,1.63-9.49,1.59-5.16,8.28-8.17,13.58-7.16,3.16.6,5.35,2.41,7.22,4.46,1.3,1.43,2.06,3.85,2.09,5.84.19,11.38.09,22.77.09,34.16h.02Z"/>
  <path class="cls-1" d="M348.45,291.43c-.22-5.85,5.61-12.33,12.32-12.03,3.89.17,6.98,1.24,9.69,4.02,7.42,7.6,14.93,15.11,22.44,22.62,3.05,3.05,6.19,6,9.25,9.04,3.12,3.11,4.8,6.78,3.75,11.24-1.23,5.24-4.5,8.4-9.85,9.56-5.29,1.15-9.01-1.35-12.46-4.8-4.19-4.21-8.43-8.37-12.61-12.59-6.74-6.8-13.58-13.5-20.08-20.53-1.46-1.58-1.67-4.32-2.46-6.52Z"/>
</svg>