<svg width="695" height="331" viewBox="0 0 695 331" fill="none" xmlns="http://www.w3.org/2000/svg">
<g clip-path="url(#clip0_1055_203)">
<path d="M314.469 164.827C311.891 164.827 309.311 163.845 307.346 161.876L276.991 131.501C273.067 127.568 273.067 121.18 277.005 117.259C280.939 113.321 287.314 113.321 291.248 117.259L321.602 147.629C325.526 151.566 325.526 157.954 321.59 161.876C319.621 163.845 317.047 164.827 314.469 164.827Z" fill="white"/>
<path d="M610.361 169.442C564.177 169.442 526.595 131.446 526.595 84.733C526.595 69.026 530.872 53.691 538.972 40.385C541.863 35.625 548.054 34.12 552.824 37.009C557.566 39.905 559.084 46.104 556.191 50.855C550.009 61.01 546.746 72.716 546.746 84.733C546.746 120.326 575.275 149.293 610.361 149.293C645.447 149.293 674.002 120.326 674.002 84.733C674.002 49.14 645.445 20.149 610.361 20.149C600.109 20.158 590.332 22.55 581.3 27.273C576.359 29.861 570.279 27.929 567.71 23.001C565.13 18.071 567.042 11.984 571.97 9.403C583.736 3.263 597.017 0.009 610.353 0C656.564 0 694.15 38.005 694.15 84.733C694.15 131.461 656.564 169.442 610.361 169.442Z" fill="white"/>
<path d="M273.617 4.87695H201.834C197.649 4.87695 194.067 7.41895 192.543 11.044C191.996 12.29 191.681 13.658 191.681 15.101V154.465C191.681 160.034 196.186 164.542 201.756 164.542C207.326 164.542 211.83 160.034 211.83 154.465V25.031H273.617C290.508 25.031 304.256 38.771 304.256 55.675C304.256 72.5789 290.508 86.323 273.617 86.323H238.336C232.766 86.323 228.26 90.83 228.26 96.399C228.26 101.968 232.766 106.475 238.336 106.475H273.617C301.616 106.475 324.406 83.684 324.406 55.675C324.406 27.666 301.616 4.87695 273.617 4.87695Z" fill="white"/>
<path d="M485.507 83.835H444.696C439.136 83.835 434.62 88.341 434.62 93.912C434.62 99.483 439.136 103.985 444.696 103.985H475.428V154.892C475.428 160.458 479.934 164.97 485.506 164.97C491.078 164.97 495.582 160.458 495.582 154.892V93.912C495.582 88.341 491.064 83.835 485.506 83.835" fill="white"/>
<path d="M435.664 169.906C389.459 169.906 351.878 131.9 351.878 85.171C351.878 38.442 389.458 0.459961 435.664 0.459961C453.855 0.459961 471.164 6.26396 485.725 17.254C490.16 20.603 491.035 26.928 487.696 31.364C484.346 35.803 478.03 36.695 473.581 33.335C462.544 25.012 449.437 20.61 435.665 20.61C400.579 20.61 372.024 49.575 372.024 85.171C372.024 120.767 400.579 149.758 435.665 149.758C440.102 149.758 444.579 149.284 448.946 148.349C454.419 147.137 459.749 150.648 460.911 156.093C462.073 161.535 458.61 166.884 453.157 168.05C447.413 169.284 441.518 169.906 435.665 169.906" fill="white"/>
<path d="M81.751 164.532C76.187 164.532 71.677 160.024 71.677 154.456V94.28C71.677 88.717 76.187 84.209 81.751 84.209C87.315 84.209 91.829 88.717 91.829 94.28V154.456C91.829 160.024 87.316 164.532 81.751 164.532Z" fill="white"/>
<path d="M102.8 68.151C99.9129 68.151 97.0459 66.912 95.0559 64.525C91.4909 60.24 92.0789 53.896 96.3529 50.333L147.996 7.36001C152.269 3.79801 158.618 4.37401 162.178 8.66101C165.742 12.937 165.158 19.283 160.881 22.84L109.242 65.823C107.358 67.385 105.075 68.151 102.8 68.151Z" fill="white"/>
<path d="M61.745 68.151C59.471 68.151 57.19 67.385 55.307 65.823L3.63198 22.84C-0.644016 19.293 -1.22902 12.936 2.32798 8.66097C5.88398 4.38497 12.242 3.79797 16.519 7.35997L68.194 50.333C72.467 53.886 73.055 60.24 69.498 64.525C67.504 66.912 64.633 68.151 61.745 68.151Z" fill="white"/>
<path d="M73.7922 243V212.455H78.4009V225.729H93.6289V212.455H98.2525V243H93.6289V229.681H78.4009V243H73.7922Z" fill="white"/>
<path d="M131.647 227.727C131.647 230.989 131.051 233.793 129.858 236.139C128.665 238.476 127.029 240.276 124.951 241.538C122.883 242.791 120.531 243.418 117.896 243.418C115.251 243.418 112.89 242.791 110.812 241.538C108.743 240.276 107.113 238.471 105.92 236.124C104.726 233.778 104.13 230.979 104.13 227.727C104.13 224.466 104.726 221.667 105.92 219.33C107.113 216.984 108.743 215.184 110.812 213.931C112.89 212.668 115.251 212.037 117.896 212.037C120.531 212.037 122.883 212.668 124.951 213.931C127.029 215.184 128.665 216.984 129.858 219.33C131.051 221.667 131.647 224.466 131.647 227.727ZM127.084 227.727C127.084 225.241 126.681 223.148 125.875 221.448C125.08 219.738 123.986 218.445 122.594 217.57C121.212 216.685 119.646 216.243 117.896 216.243C116.136 216.243 114.565 216.685 113.183 217.57C111.801 218.445 110.707 219.738 109.902 221.448C109.106 223.148 108.709 225.241 108.709 227.727C108.709 230.213 109.106 232.311 109.902 234.021C110.707 235.722 111.801 237.014 113.183 237.899C114.565 238.774 116.136 239.212 117.896 239.212C119.646 239.212 121.212 238.774 122.594 237.899C123.986 237.014 125.08 235.722 125.875 234.021C126.681 232.311 127.084 230.213 127.084 227.727ZM113.511 208.86C112.805 208.86 112.189 208.602 111.662 208.084C111.135 207.557 110.871 206.951 110.871 206.265C110.871 205.519 111.135 204.898 111.662 204.401C112.189 203.903 112.805 203.655 113.511 203.655C114.257 203.655 114.878 203.903 115.375 204.401C115.883 204.898 116.136 205.519 116.136 206.265C116.136 206.951 115.883 207.557 115.375 208.084C114.878 208.602 114.257 208.86 113.511 208.86ZM122.281 208.86C121.575 208.86 120.959 208.602 120.432 208.084C119.905 207.557 119.641 206.951 119.641 206.265C119.641 205.519 119.905 204.898 120.432 204.401C120.959 203.903 121.575 203.655 122.281 203.655C123.027 203.655 123.648 203.903 124.145 204.401C124.652 204.898 124.906 205.519 124.906 206.265C124.906 206.951 124.652 207.557 124.145 208.084C123.648 208.602 123.027 208.86 122.281 208.86Z" fill="white"/>
<path d="M158.215 222.104C157.927 221.2 157.539 220.389 157.052 219.673C156.575 218.947 156.003 218.331 155.337 217.824C154.671 217.307 153.91 216.914 153.055 216.646C152.21 216.377 151.28 216.243 150.266 216.243C148.546 216.243 146.994 216.685 145.612 217.57C144.23 218.455 143.136 219.753 142.331 221.463C141.536 223.163 141.138 225.246 141.138 227.712C141.138 230.188 141.541 232.281 142.346 233.991C143.151 235.702 144.255 236.999 145.657 237.884C147.059 238.769 148.655 239.212 150.445 239.212C152.105 239.212 153.552 238.874 154.785 238.197C156.028 237.521 156.987 236.567 157.663 235.334C158.35 234.091 158.693 232.629 158.693 230.949L159.886 231.173H151.146V227.369H163.152V230.844C163.152 233.41 162.605 235.637 161.511 237.526C160.428 239.405 158.926 240.857 157.007 241.881C155.098 242.905 152.911 243.418 150.445 243.418C147.68 243.418 145.254 242.781 143.166 241.508C141.088 240.236 139.467 238.431 138.304 236.094C137.141 233.748 136.559 230.964 136.559 227.742C136.559 225.306 136.897 223.119 137.573 221.18C138.249 219.241 139.199 217.595 140.422 216.243C141.655 214.881 143.102 213.842 144.762 213.126C146.433 212.4 148.257 212.037 150.236 212.037C151.886 212.037 153.423 212.28 154.845 212.768C156.276 213.255 157.549 213.946 158.663 214.841C159.786 215.736 160.716 216.8 161.452 218.033C162.188 219.256 162.685 220.613 162.943 222.104H158.215Z" fill="white"/>
<path d="M169.152 243V212.455H180.04C182.407 212.455 184.37 212.862 185.932 213.678C187.503 214.493 188.676 215.621 189.451 217.063C190.227 218.495 190.615 220.151 190.615 222.03C190.615 223.899 190.222 225.545 189.436 226.967C188.661 228.379 187.488 229.477 185.917 230.263C184.356 231.048 182.392 231.441 180.025 231.441H171.777V227.474H179.608C181.099 227.474 182.312 227.26 183.247 226.832C184.191 226.405 184.882 225.783 185.32 224.968C185.757 224.153 185.976 223.173 185.976 222.03C185.976 220.876 185.753 219.877 185.305 219.032C184.868 218.187 184.177 217.54 183.232 217.093C182.297 216.636 181.069 216.407 179.548 216.407H173.761V243H169.152ZM184.231 229.219L191.778 243H186.528L179.13 229.219H184.231Z" fill="white"/>
<path d="M196.373 243V212.455H215.523V216.422H200.981V225.729H214.524V229.681H200.981V239.033H215.702V243H196.373Z" fill="white"/>
<path d="M230.738 212.455H235.973L243.953 226.34H244.281L252.26 212.455H257.495L246.413 231.008V243H241.82V231.008L230.738 212.455Z" fill="white"/>
<path d="M261.997 243V212.455H272.884C275.251 212.455 277.215 212.862 278.776 213.678C280.347 214.493 281.52 215.621 282.296 217.063C283.071 218.495 283.459 220.151 283.459 222.03C283.459 223.899 283.066 225.545 282.281 226.967C281.505 228.379 280.332 229.477 278.761 230.263C277.2 231.048 275.236 231.441 272.869 231.441H264.622V227.474H272.452C273.943 227.474 275.156 227.26 276.091 226.832C277.036 226.405 277.727 225.783 278.164 224.968C278.602 224.153 278.82 223.173 278.82 222.03C278.82 220.876 278.597 219.877 278.149 219.032C277.712 218.187 277.021 217.54 276.076 217.093C275.141 216.636 273.913 216.407 272.392 216.407H266.605V243H261.997ZM277.075 229.219L284.622 243H279.372L271.975 229.219H277.075Z" fill="white"/>
<path d="M289.217 243V212.455H293.826V227.041H294.198L307.01 212.455H312.812L300.492 226.206L312.857 243H307.308L297.435 229.353L293.826 233.499V243H289.217Z" fill="white"/>
<path d="M317.257 243V212.455H336.408V216.422H321.866V225.729H335.409V229.681H321.866V239.033H336.587V243H317.257Z" fill="white"/>
<path d="M359.374 220.479C359.215 219.067 358.559 217.973 357.405 217.197C356.252 216.412 354.8 216.019 353.05 216.019C351.797 216.019 350.713 216.218 349.799 216.616C348.884 217.004 348.173 217.54 347.666 218.227C347.169 218.903 346.92 219.673 346.92 220.538C346.92 221.264 347.089 221.891 347.427 222.418C347.775 222.945 348.228 223.387 348.784 223.745C349.351 224.093 349.958 224.386 350.604 224.625C351.25 224.854 351.872 225.043 352.468 225.192L355.451 225.967C356.426 226.206 357.425 226.529 358.449 226.937C359.473 227.344 360.423 227.881 361.298 228.548C362.173 229.214 362.879 230.039 363.416 231.023C363.963 232.008 364.236 233.186 364.236 234.558C364.236 236.288 363.789 237.825 362.894 239.167C362.009 240.509 360.721 241.568 359.031 242.344C357.35 243.119 355.317 243.507 352.931 243.507C350.644 243.507 348.665 243.144 346.995 242.418C345.324 241.692 344.017 240.663 343.072 239.331C342.127 237.989 341.605 236.398 341.506 234.558H346.13C346.219 235.662 346.577 236.582 347.203 237.317C347.84 238.043 348.65 238.585 349.635 238.943C350.629 239.291 351.718 239.465 352.901 239.465C354.203 239.465 355.362 239.261 356.376 238.854C357.4 238.436 358.206 237.859 358.792 237.124C359.379 236.378 359.672 235.508 359.672 234.513C359.672 233.609 359.414 232.868 358.897 232.291C358.39 231.714 357.698 231.237 356.823 230.859C355.958 230.481 354.979 230.148 353.885 229.86L350.276 228.876C347.83 228.209 345.891 227.23 344.459 225.937C343.037 224.645 342.326 222.935 342.326 220.807C342.326 219.047 342.804 217.511 343.758 216.198C344.713 214.886 346.005 213.866 347.636 213.141C349.267 212.405 351.106 212.037 353.154 212.037C355.223 212.037 357.047 212.4 358.628 213.126C360.219 213.852 361.472 214.851 362.387 216.124C363.301 217.386 363.779 218.838 363.819 220.479H359.374Z" fill="white"/>
<path d="M389.536 212.455H394.16V232.545C394.16 234.682 393.658 236.577 392.653 238.227C391.649 239.868 390.237 241.16 388.418 242.105C386.598 243.04 384.465 243.507 382.019 243.507C379.583 243.507 377.455 243.04 375.636 242.105C373.816 241.16 372.404 239.868 371.4 238.227C370.396 236.577 369.893 234.682 369.893 232.545V212.455H374.502V232.172C374.502 233.554 374.805 234.782 375.412 235.856C376.028 236.93 376.898 237.775 378.022 238.391C379.146 238.998 380.478 239.301 382.019 239.301C383.57 239.301 384.908 238.998 386.031 238.391C387.165 237.775 388.03 236.93 388.626 235.856C389.233 234.782 389.536 233.554 389.536 232.172V212.455Z" fill="white"/>
<path d="M399.504 216.422V212.455H423.144V216.422H413.613V243H409.019V216.422H399.504Z" fill="white"/>
<path d="M428.518 243V212.455H439.704C441.871 212.455 443.666 212.812 445.088 213.528C446.51 214.234 447.574 215.194 448.28 216.407C448.986 217.61 449.339 218.967 449.339 220.479C449.339 221.751 449.105 222.825 448.638 223.7C448.17 224.565 447.544 225.261 446.758 225.788C445.983 226.305 445.128 226.683 444.193 226.922V227.22C445.207 227.27 446.197 227.598 447.161 228.205C448.136 228.801 448.941 229.651 449.577 230.755C450.214 231.859 450.532 233.201 450.532 234.782C450.532 236.343 450.164 237.745 449.428 238.988C448.702 240.221 447.579 241.2 446.057 241.926C444.536 242.642 442.592 243 440.226 243H428.518ZM433.126 239.048H439.778C441.986 239.048 443.567 238.62 444.521 237.765C445.476 236.91 445.953 235.841 445.953 234.558C445.953 233.594 445.709 232.709 445.222 231.903C444.735 231.098 444.039 230.457 443.134 229.979C442.239 229.502 441.175 229.263 439.942 229.263H433.126V239.048ZM433.126 225.669H439.301C440.335 225.669 441.265 225.47 442.09 225.072C442.925 224.675 443.587 224.118 444.074 223.402C444.571 222.676 444.819 221.821 444.819 220.837C444.819 219.574 444.377 218.515 443.492 217.66C442.607 216.805 441.25 216.377 439.42 216.377H433.126V225.669Z" fill="white"/>
<path d="M460.757 212.455V243H456.148V212.455H460.757Z" fill="white"/>
<path d="M467.618 243V212.455H472.227V239.033H486.068V243H467.618Z" fill="white"/>
<path d="M501.364 243H491.475V212.455H501.677C504.67 212.455 507.24 213.066 509.388 214.289C511.536 215.502 513.181 217.247 514.325 219.524C515.478 221.791 516.055 224.511 516.055 227.682C516.055 230.864 515.473 233.599 514.31 235.886C513.157 238.173 511.486 239.932 509.299 241.165C507.111 242.388 504.466 243 501.364 243ZM496.084 238.973H501.11C503.437 238.973 505.371 238.535 506.912 237.66C508.453 236.776 509.607 235.498 510.372 233.827C511.138 232.147 511.521 230.099 511.521 227.682C511.521 225.286 511.138 223.253 510.372 221.582C509.617 219.912 508.488 218.644 506.987 217.779C505.485 216.914 503.621 216.481 501.394 216.481H496.084V238.973Z" fill="white"/>
<path d="M546.59 212.455V243H542.354L526.828 220.598H526.545V243H521.936V212.455H526.202L541.743 234.886H542.026V212.455H546.59Z" fill="white"/>
<path d="M558.072 212.455V243H553.463V212.455H558.072Z" fill="white"/>
<path d="M589.587 212.455V243H585.352L569.825 220.598H569.542V243H564.933V212.455H569.199L584.74 234.886H585.023V212.455H589.587Z" fill="white"/>
<path d="M617.132 222.104C616.844 221.2 616.456 220.389 615.969 219.673C615.491 218.947 614.92 218.331 614.254 217.824C613.587 217.307 612.827 216.914 611.972 216.646C611.126 216.377 610.197 216.243 609.182 216.243C607.462 216.243 605.911 216.685 604.529 217.57C603.147 218.455 602.053 219.753 601.248 221.463C600.452 223.163 600.055 225.246 600.055 227.712C600.055 230.188 600.457 232.281 601.263 233.991C602.068 235.702 603.172 236.999 604.574 237.884C605.976 238.769 607.572 239.212 609.362 239.212C611.022 239.212 612.469 238.874 613.702 238.197C614.945 237.521 615.904 236.567 616.58 235.334C617.266 234.091 617.609 232.629 617.609 230.949L618.803 231.173H610.062V227.369H622.069V230.844C622.069 233.41 621.522 235.637 620.428 237.526C619.344 239.405 617.843 240.857 615.924 241.881C614.015 242.905 611.827 243.418 609.362 243.418C606.597 243.418 604.171 242.781 602.083 241.508C600.005 240.236 598.384 238.431 597.221 236.094C596.058 233.748 595.476 230.964 595.476 227.742C595.476 225.306 595.814 223.119 596.49 221.18C597.166 219.241 598.116 217.595 599.339 216.243C600.572 214.881 602.018 213.842 603.679 213.126C605.349 212.4 607.174 212.037 609.153 212.037C610.803 212.037 612.339 212.28 613.761 212.768C615.193 213.255 616.466 213.946 617.58 214.841C618.703 215.736 619.633 216.8 620.369 218.033C621.104 219.256 621.602 220.613 621.86 222.104H617.132Z" fill="white"/>
<path d="M254.313 275.104C254.025 274.2 253.637 273.389 253.15 272.673C252.673 271.947 252.101 271.331 251.435 270.824C250.768 270.307 250.008 269.914 249.153 269.646C248.307 269.377 247.378 269.243 246.364 269.243C244.643 269.243 243.092 269.685 241.71 270.57C240.328 271.455 239.234 272.753 238.429 274.463C237.633 276.163 237.236 278.246 237.236 280.712C237.236 283.188 237.638 285.281 238.444 286.991C239.249 288.702 240.353 289.999 241.755 290.884C243.157 291.769 244.753 292.212 246.543 292.212C248.203 292.212 249.65 291.874 250.883 291.197C252.126 290.521 253.085 289.567 253.761 288.334C254.447 287.091 254.79 285.629 254.79 283.949L255.984 284.173H247.244V280.369H259.25V283.844C259.25 286.41 258.703 288.637 257.609 290.526C256.525 292.406 255.024 293.857 253.105 294.881C251.196 295.905 249.008 296.418 246.543 296.418C243.778 296.418 241.352 295.781 239.264 294.508C237.186 293.236 235.565 291.431 234.402 289.094C233.239 286.748 232.657 283.964 232.657 280.742C232.657 278.306 232.995 276.119 233.671 274.18C234.347 272.241 235.297 270.595 236.52 269.243C237.753 267.881 239.2 266.842 240.86 266.126C242.53 265.4 244.355 265.037 246.334 265.037C247.984 265.037 249.521 265.28 250.942 265.768C252.374 266.255 253.647 266.946 254.761 267.841C255.884 268.736 256.814 269.8 257.55 271.033C258.285 272.256 258.783 273.613 259.041 275.104H254.313Z" fill="white"/>
<path d="M291.784 280.727C291.784 283.989 291.187 286.793 289.994 289.139C288.801 291.476 287.165 293.276 285.087 294.538C283.019 295.791 280.667 296.418 278.032 296.418C275.387 296.418 273.026 295.791 270.948 294.538C268.88 293.276 267.249 291.471 266.056 289.124C264.862 286.778 264.266 283.979 264.266 280.727C264.266 277.466 264.862 274.667 266.056 272.33C267.249 269.984 268.88 268.184 270.948 266.931C273.026 265.668 275.387 265.037 278.032 265.037C280.667 265.037 283.019 265.668 285.087 266.931C287.165 268.184 288.801 269.984 289.994 272.33C291.187 274.667 291.784 277.466 291.784 280.727ZM287.22 280.727C287.22 278.241 286.817 276.148 286.012 274.448C285.216 272.738 284.122 271.445 282.73 270.57C281.348 269.685 279.782 269.243 278.032 269.243C276.272 269.243 274.701 269.685 273.319 270.57C271.937 271.445 270.843 272.738 270.038 274.448C269.242 276.148 268.845 278.241 268.845 280.727C268.845 283.213 269.242 285.311 270.038 287.021C270.843 288.722 271.937 290.014 273.319 290.899C274.701 291.774 276.272 292.212 278.032 292.212C279.782 292.212 281.348 291.774 282.73 290.899C284.122 290.014 285.216 288.722 286.012 287.021C286.817 285.311 287.22 283.213 287.22 280.727ZM273.647 261.86C272.941 261.86 272.325 261.602 271.798 261.084C271.271 260.557 271.007 259.951 271.007 259.265C271.007 258.519 271.271 257.898 271.798 257.401C272.325 256.903 272.941 256.655 273.647 256.655C274.393 256.655 275.014 256.903 275.512 257.401C276.019 257.898 276.272 258.519 276.272 259.265C276.272 259.951 276.019 260.557 275.512 261.084C275.014 261.602 274.393 261.86 273.647 261.86ZM282.417 261.86C281.711 261.86 281.095 261.602 280.568 261.084C280.041 260.557 279.777 259.951 279.777 259.265C279.777 258.519 280.041 257.898 280.568 257.401C281.095 256.903 281.711 256.655 282.417 256.655C283.163 256.655 283.784 256.903 284.281 257.401C284.789 257.898 285.042 258.519 285.042 259.265C285.042 259.951 284.789 260.557 284.281 261.084C283.784 261.602 283.163 261.86 282.417 261.86Z" fill="white"/>
<path d="M294.861 269.422V265.455H318.501V269.422H308.97V296H304.376V269.422H294.861Z" fill="white"/>
<path d="M323.874 296V265.455H343.025V269.422H328.483V278.729H342.026V282.681H328.483V292.033H343.204V296H323.874Z" fill="white"/>
<path d="M349.331 296V265.455H360.517C362.685 265.455 364.48 265.812 365.901 266.528C367.323 267.234 368.387 268.194 369.093 269.407C369.799 270.61 370.152 271.967 370.152 273.479C370.152 274.751 369.918 275.825 369.451 276.7C368.984 277.565 368.357 278.261 367.572 278.788C366.796 279.305 365.941 279.683 365.007 279.922V280.22C366.021 280.27 367.01 280.598 367.975 281.204C368.949 281.801 369.754 282.651 370.391 283.755C371.027 284.859 371.345 286.201 371.345 287.782C371.345 289.343 370.977 290.745 370.242 291.988C369.516 293.221 368.392 294.2 366.871 294.926C365.35 295.642 363.406 296 361.039 296H349.331ZM353.94 292.048H360.592C362.799 292.048 364.38 291.62 365.335 290.765C366.289 289.91 366.766 288.841 366.766 287.558C366.766 286.594 366.523 285.709 366.036 284.903C365.548 284.098 364.852 283.457 363.948 282.979C363.053 282.502 361.989 282.263 360.756 282.263H353.94V292.048ZM353.94 278.669H360.115C361.149 278.669 362.078 278.47 362.904 278.072C363.739 277.675 364.4 277.118 364.887 276.402C365.384 275.676 365.633 274.821 365.633 273.837C365.633 272.574 365.19 271.515 364.306 270.66C363.421 269.805 362.063 269.377 360.234 269.377H353.94V278.669Z" fill="white"/>
<path d="M403.495 280.727C403.495 283.989 402.898 286.793 401.705 289.139C400.512 291.476 398.876 293.276 396.798 294.538C394.73 295.791 392.378 296.418 389.744 296.418C387.099 296.418 384.737 295.791 382.659 294.538C380.591 293.276 378.96 291.471 377.767 289.124C376.574 286.778 375.977 283.979 375.977 280.727C375.977 277.466 376.574 274.667 377.767 272.33C378.96 269.984 380.591 268.184 382.659 266.931C384.737 265.668 387.099 265.037 389.744 265.037C392.378 265.037 394.73 265.668 396.798 266.931C398.876 268.184 400.512 269.984 401.705 272.33C402.898 274.667 403.495 277.466 403.495 280.727ZM398.931 280.727C398.931 278.241 398.528 276.148 397.723 274.448C396.927 272.738 395.834 271.445 394.442 270.57C393.06 269.685 391.494 269.243 389.744 269.243C387.984 269.243 386.413 269.685 385.03 270.57C383.648 271.445 382.555 272.738 381.749 274.448C380.954 276.148 380.556 278.241 380.556 280.727C380.556 283.213 380.954 285.311 381.749 287.021C382.555 288.722 383.648 290.014 385.03 290.899C386.413 291.774 387.984 292.212 389.744 292.212C391.494 292.212 393.06 291.774 394.442 290.899C395.834 290.014 396.927 288.722 397.723 287.021C398.528 285.311 398.931 283.213 398.931 280.727Z" fill="white"/>
<path d="M409.391 296V265.455H420.279C422.645 265.455 424.609 265.862 426.17 266.678C427.741 267.493 428.914 268.621 429.69 270.063C430.465 271.495 430.853 273.151 430.853 275.03C430.853 276.899 430.46 278.545 429.675 279.967C428.899 281.379 427.726 282.477 426.155 283.263C424.594 284.048 422.63 284.441 420.264 284.441H412.016V280.474H419.846C421.338 280.474 422.551 280.26 423.485 279.832C424.43 279.405 425.121 278.783 425.558 277.968C425.996 277.153 426.215 276.173 426.215 275.03C426.215 273.876 425.991 272.877 425.544 272.032C425.106 271.187 424.415 270.54 423.47 270.093C422.536 269.636 421.308 269.407 419.786 269.407H414V296H409.391ZM424.47 282.219L432.017 296H426.767L419.369 282.219H424.47Z" fill="white"/>
<path d="M457.283 275.104C456.995 274.2 456.607 273.389 456.12 272.673C455.642 271.947 455.071 271.331 454.405 270.824C453.738 270.307 452.978 269.914 452.123 269.646C451.277 269.377 450.348 269.243 449.333 269.243C447.613 269.243 446.062 269.685 444.68 270.57C443.298 271.455 442.204 272.753 441.399 274.463C440.603 276.163 440.206 278.246 440.206 280.712C440.206 283.188 440.608 285.281 441.414 286.991C442.219 288.702 443.323 289.999 444.725 290.884C446.127 291.769 447.723 292.212 449.512 292.212C451.173 292.212 452.62 291.874 453.853 291.197C455.096 290.521 456.055 289.567 456.731 288.334C457.417 287.091 457.76 285.629 457.76 283.949L458.954 284.173H450.213V280.369H462.22V283.844C462.22 286.41 461.673 288.637 460.579 290.526C459.495 292.406 457.994 293.857 456.075 294.881C454.166 295.905 451.978 296.418 449.512 296.418C446.748 296.418 444.322 295.781 442.234 294.508C440.156 293.236 438.535 291.431 437.372 289.094C436.208 286.748 435.627 283.964 435.627 280.742C435.627 278.306 435.965 276.119 436.641 274.18C437.317 272.241 438.267 270.595 439.49 269.243C440.723 267.881 442.169 266.842 443.83 266.126C445.5 265.4 447.325 265.037 449.304 265.037C450.954 265.037 452.49 265.28 453.912 265.768C455.344 266.255 456.617 266.946 457.731 267.841C458.854 268.736 459.784 269.8 460.52 271.033C461.255 272.256 461.753 273.613 462.011 275.104H457.283Z" fill="white"/>
</g>
<defs>
<clipPath id="clip0_1055_203">
<rect width="694.15" height="330.311" fill="white"/>
</clipPath>
</defs>
</svg>
